/* XPM */
static char *result[] = {
/* columns rows colors chars-per-pixel */
"64 64 15 1 ",
"  c #A6520A",
". c #A7520A",
"X c #A6530A",
"o c #A7530A",
"O c #A6520B",
"+ c #A7520B",
"@ c #A6530B",
"# c #DC7012",
"$ c #DD7012",
"% c #DC7112",
"& c #DD7112",
"* c #DC7013",
"= c #DD7013",
"- c #DC7113",
"; c #DD7113",
/* pixels */
"             .             ..                       .    .      ",
" ***#**-**##******* *****-*****#******.*#=#*=****$***#=** ***** ",
" **********#*****-=X;*-**--#*********=O**#=%=**=***#**=*; ***** ",
" #******=#%*=-**&*#X***=-***#-****--#- *-*$**=#**********.****- ",
" **=**=-=**=#**=***O*-*$=**#***-*****= #==*$-*;-***=-*-** **=*# ",
"  .     X O.          X. .X  .@o        o.   +   X  O    .  XOX ",
" *=***-**** *#==*****#=*-**=** *$-**=-*#**=***#** *****--=$*-**O",
" **=-#**=== =***=-**=**#***==*.****-*******-**=-- *#*******;=&* ",
" *=***-****O*=**-#=*****#*;**= *-#***********-*** *#*=*#******* ",
" =-******** #-**-*#***-*-=*=#*O*-****#==*#-*-#*** **;=**-****%* ",
"     X    X        X XX X .         O  .. O  . X. O @   X      .",
" *=*=* ****#**#*#=#*****#O#**=-*******-*#=**X=**;*#****=*#*=*** ",
" -**$* *#-*=-***#*******- -#*=*&*****-*-%-*-O-**#-**=#%-#-=**** ",
" $-*%* -*#****#-*##*#**** #-$**#*#**=*=#****X**#****-;*=#**-=**X",
" ===** =**%**-****-*#**;* --****-=-*****#=** **-**--***-=*#**#- ",
" X O  OO X   .       O O.      .O.O    .  .XX  X .    O.. X     ",
" *-******@*=--##***#***#**** =******#-***#;**** --$*********=** ",
" *==-**** #=***************= *-*-********=*$***O***=*********** ",
" *##*#*** ************=*-#-*O**#=***#-*******#= -=#********==** ",
" ==****** *=***#-*#*==**-==* ****=******-******O*$****-***-**** ",
"  oXX    .   O   X         O  X X     XO        O.XX X          ",
" ** ****-*-****-**=*=*.=#************-***O**#=****=*****-**#.** ",
" ** =****-************ #*****#---***=***= -=-***#**-$******* ** ",
" **o=*-******$***;**** *=****=******#**=* *****-**=*#*****#-.**.",
" **O***=********$***-* **=-*******#*-**** *************-**#= *-X",
"            X   O.O            ..     .      OX  .      .   O   ",
" **********#******#- ****#******#****#* -*=***=*********#* =*** ",
" **************=****O**-*-***-****-*#** ********=******#%= ****O",
" *************-***** -*****#*********** **-=**==*******-#= **** ",
" ************=****** ************#***** =*********#***=#** ***# ",
" O X                                             .       +      ",
"O**-**= ****=****-******** *-*****#********** -=***********#**- ",
" *-=***.*-***-************ ***********%****** *#***-***#**#**** ",
"O*=**** **-*******=*******O********=*;#****-* **********=**-*** ",
" *****= *#=*****%********- ****-****=*****=*- *&=***********-** ",
"              .        X   .                                    ",
" *****#***=*#** ****************** ***=*****#******$* ********* ",
"X****-****=#*** **;-*=****=*-***** *********#******=* ********* ",
" *-**********=*.**********#=**--** ******=#*****#**** *-******= ",
" **********#*=* ******-**********# #********-***#****.**=***#** ",
"    X    O O    O    O           XX O.     X   O.   .        O  ",
" #*-*****=**X*****=*****=****** *******-****#***** *********#** ",
" -**********.*******-*#-******* *%**==***$*-****** ***-*#*-**** ",
" *********** ***#=******#****** #*****#******=***# ***-****=**#.",
" =********-* ****=************* ****************** ************O",
" . XX .          O                     .  .                 .   ",
" *** ******#*****-*=*** *=#*******=***=***X*********=******-*X* ",
" *** -*=*****=********* **=*=**=********#* ***%*******=**=***O* ",
" *** **%**-**-********* ***--***#*=******# *******-**$****-** * ",
" #** ***#***#********** -*******;**#*#**** ***##************-.= ",
"            X                       .    OX   X            .    ",
" -***=$*****#;**** *********;**-#****O*****#****-******* ****** ",
" *****************o****#**#***#*****= *************#**=* ****-* ",
" *****#****#*****# *********#-******* **-*************** **=*** ",
" ****-#*=*#****-** ********=*=******* -***=********=**** *-***# ",
"    X         X       X        . . X      O            X X      ",
" ******* ****=-**********-- *-****=*********** ********-******* ",
" ******* *****-************ *--*******=*-***#* ****=*********** ",
" #****** ****************** ******=*****=***** ******=*******-* ",
" *=**=*# ********-***#***** *********#*#****** -******=******-* ",
"O .   .     OX.  O O    X               O  O       .          . ",
" *-***-**********#* ***********-***-** *--#****-****-**** *-*=# ",
"O*****=*#$**-****** ##******-******=** **********-**#=*** *-*-* ",
"      X                 O .   X    .                  O      .  "
};
