/* XPM */
static char *result[] = {
/* columns rows colors chars-per-pixel */
"64 64 2 1 ",
"  c #40064F",
". c #880EA7",
/* pixels */
"                                                                ",
" .................. .................. .................. ..... ",
" .................. .................. .................. ..... ",
" .................. .................. .................. ..... ",
" .................. .................. .................. ..... ",
"                                                                ",
" .......... .................. .................. ............. ",
" .......... .................. .................. ............. ",
" .......... .................. .................. ............. ",
" .......... .................. .................. ............. ",
"                                                                ",
" ..... .................. .................. .................. ",
" ..... .................. .................. .................. ",
" ..... .................. .................. .................. ",
" ..... .................. .................. .................. ",
"                                                                ",
" ........ .................. .................. ............... ",
" ........ .................. .................. ............... ",
" ........ .................. .................. ............... ",
" ........ .................. .................. ............... ",
"                                                                ",
" .. .................. .................. .................. .. ",
" .. .................. .................. .................. .. ",
" .. .................. .................. .................. .. ",
" .. .................. .................. .................. .. ",
"                                                                ",
" ................... .................. .................. .... ",
" ................... .................. .................. .... ",
" ................... .................. .................. .... ",
" ................... .................. .................. .... ",
"                                                                ",
" ...... .................. .................. ................. ",
" ...... .................. .................. ................. ",
" ...... .................. .................. ................. ",
" ...... .................. .................. ................. ",
"                                                                ",
" .............. .................. .................. ......... ",
" .............. .................. .................. ......... ",
" .............. .................. .................. ......... ",
" .............. .................. .................. ......... ",
"                                                                ",
" ........... .................. .................. ............ ",
" ........... .................. .................. ............ ",
" ........... .................. .................. ............ ",
" ........... .................. .................. ............ ",
"                                                                ",
" ... .................. .................. .................. . ",
" ... .................. .................. .................. . ",
" ... .................. .................. .................. . ",
" ... .................. .................. .................. . ",
"                                                                ",
" ................. .................. .................. ...... ",
" ................. .................. .................. ...... ",
" ................. .................. .................. ...... ",
" ................. .................. .................. ...... ",
"                                                                ",
" ....... .................. .................. ................ ",
" ....... .................. .................. ................ ",
" ....... .................. .................. ................ ",
" ....... .................. .................. ................ ",
"                                                                ",
" .................. .................. .................. ..... ",
" .................. .................. .................. ..... ",
"                                                                "
};
